<?xml version="1.0" standalone="no"?><!DOCTYPE svg PUBLIC "-//W3C//DTD SVG 1.1//EN" "http://www.w3.org/Graphics/SVG/1.1/DTD/svg11.dtd"><svg t="1613912005849" class="icon" viewBox="0 0 1025 1024" version="1.1" xmlns="http://www.w3.org/2000/svg" p-id="5594" xmlns:xlink="http://www.w3.org/1999/xlink" width="200.1953125" height="200"><defs><style type="text/css"></style></defs><path d="M60.404494 1024h2.876405c-1.438202 0-2.876404-1.438202-2.876405-1.438202v1.438202z" fill="#88147f" p-id="5595"></path><path d="M732.044944 199.910112h-10.067416-1.438202c-11.505618 0-21.573034 10.067416-21.573034 21.573034s10.067416 21.573034 21.573034 21.573034h11.505618c77.662921 0 145.258427 37.393258 186.966292 96.35955-47.460674-53.213483-122.247191-86.292135-202.786517-81.977528-106.426966 5.752809-191.280899 74.786517-220.044944 162.516854-28.764045-97.797753-120.808989-168.269663-230.112359-168.269663-63.280899 0-119.370787 23.011236-162.516854 61.842697 41.707865-44.58427 102.11236-73.348315 168.269663-73.348315h10.067415c11.505618 0 20.134831-10.067416 20.134832-21.573033s-8.629213-21.573034-20.134832-21.573034H273.258427c-151.011236 0-273.258427 122.247191-273.258427 273.258427s122.247191 273.258427 273.258427 273.258427c93.483146 0 179.775281-47.460674 230.11236-125.123596 48.898876 79.101124 136.629213 128 231.550561 128 151.011236 0 273.258427-122.247191 273.258427-273.258427-2.876404-151.011236-125.123596-273.258427-276.134831-273.258427zM240.179775 546.516854c-21.573034 0-38.831461-17.258427-38.83146-38.831461s17.258427-38.831461 38.83146-38.83146c21.573034 0 38.831461 17.258427 38.831461 38.83146S261.752809 546.516854 240.179775 546.516854z m254.561798 4.314607c0-1.438202 0-1.438202 1.438202-2.876405 0 1.438202 0 1.438202 1.438203 2.876405-1.438202-1.438202-1.438202 0-2.876405 0z m268.94382-4.314607c-21.573034 0-38.831461-17.258427-38.83146-38.831461s17.258427-38.831461 38.83146-38.83146c21.573034 0 38.831461 17.258427 38.831461 38.83146S785.258427 546.516854 763.685393 546.516854z" fill="#88147f" p-id="5596"></path></svg>