<svg width="300" height="300" xmlns="http://www.w3.org/2000/svg">
 <!-- Created with Method Draw - http://github.com/duopixel/Method-Draw/ -->

 <g>
  <title>background</title>
  <rect fill="none" id="canvas_background" height="302" width="302" y="-1" x="-1"/>
  <g display="none" overflow="visible" y="0" x="0" height="100%" width="100%" id="canvasGrid">
   <rect fill="url(#gridpattern)" stroke-width="0" y="0" x="0" height="100%" width="100%"/>
  </g>
 </g>
 <g>
  <title>Layer 1</title>
  <defs>
   <style type="text/css"/>
  </defs>
  <g stroke="null" id="svg_5">
   <path stroke="null" id="svg_4" p-id="25635" fill="#000000" d="m73.478263,114.012393c25.665196,0 46.478265,18.245748 46.478265,27.987579s-20.813069,27.987579 -46.478265,27.987579s-46.478265,-18.487949 -46.478265,-27.987579s20.813069,-27.987579 46.478265,-27.987579zm13.279504,27.987579c0,-7.723495 -5.950239,-13.993789 -13.279504,-13.993789s-13.279504,6.270294 -13.279504,13.993789s5.950239,13.993789 13.279504,13.993789s13.279504,-6.270294 13.279504,-13.993789z"/>
  </g>
  <g stroke="null" id="svg_7">
   <path stroke="null" id="svg_6" p-id="25635" fill="#000000" d="m216.47826,114.01239c25.6652,0 46.47827,18.24575 46.47827,27.98758s-20.81307,27.98758 -46.47827,27.98758s-46.47826,-18.48795 -46.47826,-27.98758s20.81307,-27.98758 46.47826,-27.98758zm13.27951,27.98758c0,-7.72349 -5.95024,-13.99379 -13.27951,-13.99379s-13.2795,6.2703 -13.2795,13.99379s5.95024,13.99379 13.2795,13.99379s13.27951,-6.27029 13.27951,-13.99379z"/>
  </g>
 </g>
</svg>