<?xml version="1.0" standalone="no"?><!DOCTYPE svg PUBLIC "-//W3C//DTD SVG 1.1//EN" "http://www.w3.org/Graphics/SVG/1.1/DTD/svg11.dtd"><svg t="1614074984089" class="icon" viewBox="0 0 1024 1024" version="1.1" xmlns="http://www.w3.org/2000/svg" p-id="4204" xmlns:xlink="http://www.w3.org/1999/xlink" width="200" height="200"><defs><style type="text/css"></style></defs><path d="M747.52 180.906667c-30.72-20.48-51.2 0-61.44 10.24l-6.826667 6.826666-3.413333 3.413334v-3.413334c-3.413333-3.413333-3.413333-6.826667-3.413333-10.24 0 0 0-3.413333-3.413334-3.413333-6.826667-10.24-13.653333-17.066667-23.893333-20.48-13.653333-3.413333-27.306667 3.413333-37.546667 10.24l-3.413333 3.413333c-10.24 3.413333-20.48 10.24-23.893333 23.893334-3.413333 10.24 0 20.48 6.826666 30.72 6.826667 10.24 6.826667 37.546667 0 88.746666v3.413334-3.413334-3.413333c-23.893333-47.786667-54.613333-61.44-75.093333-68.266667-30.72-3.413333-61.44 6.826667-95.573333 37.546667-47.786667 44.373333-78.506667 81.92-102.4 122.88-37.546667 61.44-68.266667 122.88-61.44 197.973333 3.413333 44.373333 27.306667 75.093333 64.853333 92.16 44.373333 17.066667 81.92 6.826667 112.64-27.306666 17.066667-20.48 30.72-40.96 37.546667-61.44 30.72-71.68 40.96-150.186667 51.2-221.866667v-3.413333 3.413333c30.72 81.92 34.133333 157.013333 10.24 228.693333-20.48 68.266667-61.44 126.293333-126.293334 174.08l-3.413333 3.413334c-6.826667 3.413333-27.306667 17.066667-20.48 37.546666 3.413333 17.066667 23.893333 23.893333 34.133333 27.306667 10.24 3.413333 20.48 3.413333 27.306667 3.413333 10.24 0 17.066667-3.413333 23.893333-6.826666 68.266667-44.373333 116.053333-109.226667 143.36-180.906667 23.893333-64.853333 44.373333-133.12 61.44-197.973333l6.826667-27.306667c3.413333-6.826667 3.413333-13.653333 6.826667-20.48 13.653333-51.2 40.96-146.773333 68.266666-174.08 10.24-10.24 20.48-20.48 20.48-37.546667 0-20.48-10.24-30.72-23.893333-37.546666zM368.64 648.533333c-27.306667 10.24-54.613333 0-61.44-17.066666-3.413333-17.066667 10.24-37.546667 37.546667-47.786667 27.306667-10.24 51.2 0 58.026666 17.066667 6.826667 17.066667-6.826667 40.96-34.133333 47.786666z m44.373333-78.506666c-10.24 3.413333-20.48 0-20.48-6.826667-3.413333-6.826667 3.413333-13.653333 13.653334-17.066667s17.066667 0 20.48 3.413334c3.413333 6.826667-3.413333 17.066667-13.653334 20.48z m0 0" p-id="4205" fill="#a19b29"></path></svg>