<?xml version="1.0" encoding="utf-8"?>
<!-- Generator: Adobe Illustrator 16.0.0, SVG Export Plug-In . SVG Version: 6.00 Build 0)  -->
<!DOCTYPE svg PUBLIC "-//W3C//DTD SVG 1.1//EN" "http://www.w3.org/Graphics/SVG/1.1/DTD/svg11.dtd">
<svg version="1.1" id="图层_1" xmlns="http://www.w3.org/2000/svg" xmlns:xlink="http://www.w3.org/1999/xlink" x="0px" y="0px"
	 width="115px" height="176px" viewBox="28.5 11.5 115 176" enable-background="new 28.5 11.5 115 176" xml:space="preserve">
<path fill="#D81E06" d="M61.025,55.292c4.217-7.492,10.7-13.383,19.542-15.85c3.091-5.25,3.9-13.017,2.833-22.775h15.267
	c1.434,6.492,1.434,14.958-1.9,21.317c5.388-5.481,9.772-11.864,12.958-18.858l17,3.575c-3.041,8.583-8.074,16.241-14.434,23.491
	c2.334,2.25,4.851,5.442,6.851,8.784h0.134c1.658,3.083,19.366,36.983,19.75,40.008c0.809,6.441-1,12.566-4.283,17.658
	c-0.834,1.267-1.75,2.5-2.768,3.658c-0.366,0.417-0.366,0.458-0.309,0.583c0.284,0.658-0.082-0.232,0.268,0.592
	c1.758,4.051,2.675,8.316,2.916,12.691c0.976,18.817-12.8,43.701-30.416,51.367c-2.242,1.013-4.646,1.617-7.1,1.783
	C82.967,184.075,63.975,159,52.267,148.783c-7.208-6.291-12.566-15-14.375-24.083c-0.897-4.306-0.903-8.751-0.017-13.059
	c-0.874-1.231-1.641-2.536-2.292-3.899c-3-6.4-2.809-13.301-0.567-19.684c2.301-6.208,6.175-11.713,11.242-15.975
	c0.717-0.6,11.217-14.15,14.767-16.784V55.292z"/>
</svg>
