<svg width="130" height="240" xmlns="http://www.w3.org/2000/svg">
 <!-- Created with Method Draw - http://github.com/duopixel/Method-Draw/ -->

 <g>
  <title>background</title>
  <rect fill="none" id="canvas_background" height="242" width="132" y="-1" x="-1"/>
  <g display="none" overflow="visible" y="0" x="0" height="100%" width="100%" id="canvasGrid">
   <rect fill="url(#gridpattern)" stroke-width="0" y="1" x="1" height="731" width="1420" id="svg_1"/>
  </g>
 </g>
 <g>
  <title>Layer 1</title>
  <g stroke="null" id="svg_6">
   <path stroke="null" id="svg_5" d="m57.225603,33.451145c0,0 0.263327,-6.350723 -0.511463,-7.288295c0,0 -1.031787,-3.175951 -0.767194,-4.080501c0,0 -2.233219,-0.15921 -2.402863,-3.525034c0,0 -0.511463,-5.604203 1.541984,-2.961312c0.034182,-0.031842 -2.795321,-13.209739 9.553212,-13.52816c0,0 11.33447,-0.396257 9.7659,13.051708c0,0 2.319306,-0.880963 1.458428,3.516779c0,0 -0.17091,3.60405 -2.225622,3.365824c0,0 -0.084822,3.60405 -0.945699,4.239712c0,0 -1.116609,5.446172 -0.17091,6.724572c0.945699,1.27722 7.670675,6.486346 10.721727,6.565361c0,0 13.967744,-3.174772 16.114873,12.487985c0.040512,2.304422 -0.13293,4.607665 -0.519058,6.882603c-0.08862,1.299628 0.086088,2.603973 0.519058,3.842275c0,0 1.968625,7.050069 2.138268,10.169412c0.520324,2.075631 1.579965,4.000306 3.086501,5.604203c2.080032,3.247891 3.667593,6.748158 4.720902,10.400562c1.797715,6.167926 1.883803,8.328468 3.340966,11.050375c1.457162,2.723086 2.48895,7.36731 3.51061,9.041967c1.024192,1.674657 0.606412,2.246634 2.924453,3.286809c1.754671,0.733547 3.285263,1.859813 4.457575,3.278553c1.022926,1.199384 4.967772,3.525034 4.798128,4.247967c-0.434236,0.832611 -1.509069,1.179335 -2.401596,0.776003c-0.089886,-0.040097 -0.175974,-0.087271 -0.256998,-0.14152c-0.936838,-0.714677 -3.340966,-1.763107 -2.915591,-0.959979c0.427907,0.801948 5.250089,9.803817 4.168927,10.845171l-0.051906,0.047173c0,0 -1.192569,0.173362 -2.020531,-1.493039c-0.835558,-1.468273 -1.795183,-2.874041 -2.871281,-4.200794l1.250805,4.883629c0,0 1.859749,3.579284 0.853282,4.072246c0,0 -1.320435,0.310165 -1.950902,-1.826791l-3.55492,-6.874347c0,0 -0.495004,-0.285399 -0.357011,0.523625c0.135461,0.810203 1.704032,7.684552 1.91672,7.938108c0.213953,0.254737 0.264593,1.412844 -0.467153,1.635739c0,0 -1.288785,0.182797 -1.61921,-1.548468c0,0 -2.939645,-7.526521 -2.906729,-8.026558s-0.459557,-0.181618 -0.459557,0s0.263327,6.350723 0,6.732827c-0.058236,0.305448 -0.332958,0.534239 -0.664648,0.555467c-0.678574,-0.109678 -1.192569,-0.630945 -1.252071,-1.270144c0,0 -0.400055,-3.635892 -0.332958,-4.716164c0.02532,-0.928137 -0.143057,-1.852737 -0.495004,-2.723086c-0.238007,-0.610896 -2.215495,-4.382411 -2.557314,-6.080655c-0.362076,-1.202922 -0.626669,-2.428252 -0.792514,-3.667734c-0.21522,-1.559082 -0.568433,-3.099294 -1.055842,-4.604127c0,0 -5.829915,-10.479577 -8.02009,-13.892574c0,0 -7.319994,-10.932441 -6.81866,-15.47996c0,0 -4.63608,-11.607022 -5.113362,-12.289857c0,0 -4.63608,12.289857 -2.923187,20.482702c0,0 1.457162,8.423995 1.457162,11.384127s4.065115,16.902239 4.338571,22.831939c0.27219,5.9297 0.731746,18.442451 -1.458428,26.634117c-2.188909,8.192845 -0.978616,12.750977 -0.978616,16.15572c0,3.407101 1.466025,11.615277 1.704032,15.71111c0.239273,4.097012 -0.484877,18.434196 -2.437044,25.038476c-1.405257,4.356466 -1.655924,8.966489 -0.72415,13.432634c0.486143,2.501371 3.408064,6.827174 5.846374,8.415739s11.463601,7.73998 2.197771,8.87568c0,0 -1.950902,1.587386 -5.113362,-0.221715c0,0 -4.141076,-1.143955 -4.874089,-4.556953c-1.379937,-0.712319 -2.856089,-1.245378 -4.389211,-1.587386c-1.705298,-0.229971 -4.389211,-3.414177 -2.43831,-5.462683c0,0 1.219155,-2.279656 0.486143,-4.104088s0,-4.763337 0.238007,-6.144339c0.238007,-1.382181 -0.486143,-5.462683 -0.972285,-8.87568s-4.875353,-14.798304 -3.170057,-21.625478c1.704032,-6.827174 0.731746,-7.057145 0,-12.288678c-0.733012,-5.232712 -3.40933,-14.338363 -3.40933,-18.894137c0,-4.556953 -6.093243,-20.260987 -5.113362,-28.683802l-1.704032,0c0,0 -2.685179,22.761178 -6.340112,36.646677c0,0 -0.486143,10.247248 -2.923187,13.432634c0,0 0.238007,4.097012 0.733012,7.51001c0.493739,3.414177 1.217889,11.382948 -0.979882,15.932825c-2.197771,4.548698 -3.170057,16.393945 -3.170057,19.355257s-0.733012,4.318727 0.24687,6.597204c0.979882,2.278476 2.437044,4.763337 0,5.921445c-2.437044,1.159287 -6.588248,2.048506 -7.073125,2.962491c-0.486143,0.911626 -7.065528,7.938108 -10.72046,3.635892c0,0 -6.81866,-1.365671 -2.199036,-4.763337c0,0 4.875353,-2.048506 7.311132,-4.763337c1.581231,-1.848019 2.971295,-3.830482 4.149938,-5.922624c0.486143,-0.681656 0.733012,-5.914369 0.486143,-9.097396s-3.903068,-23.672805 -3.170057,-27.786328c0.733012,-4.112343 1.952167,-11.154157 2.683914,-14.798304c0.733012,-3.644147 -0.24687,-9.105651 -0.24687,-11.114059s-4.627219,-24.81794 -3.40933,-33.009606c1.219155,-8.194024 2.190175,-18.434196 3.894207,-22.761178c1.705298,-4.325803 2.437044,-14.568334 2.685179,-17.751361c0.24687,-3.184207 -2.923187,-15.481139 -3.408064,-16.61566c0,0 -3.895472,9.328545 -5.113362,12.702624c-1.219155,3.37408 -0.24687,5.461503 -3.170057,9.788486c-3.490353,5.062888 -6.688262,10.29678 -9.578532,15.679268c-2.676317,5.231533 -2.923187,9.328545 -4.141076,13.424378c-1.217889,4.097012 -2.676317,5.462683 -2.676317,5.462683l-0.374735,6.350723c0,0 0,1.285476 -0.988743,1.493039c-0.632998,-0.115575 -1.045713,-0.685194 -0.922912,-1.274862c0.016458,-0.074298 0.039246,-0.147417 0.072162,-0.218177c0,0 0.27219,-5.286962 0.110141,-6.009895c0,0 -0.221549,-0.310165 -0.554506,0.15921c-0.332958,0.467017 -2.692775,8.216431 -3.13714,8.780154c-0.443099,0.563723 -0.715288,0.872708 -1.260932,0.793693c-0.62287,-0.199308 -0.953296,-0.832611 -0.739343,-1.412844c0.022787,-0.060146 0.05064,-0.119113 0.083555,-0.174542c0.355745,-1.481246 0.814037,-2.938905 1.371074,-4.365901c0.550708,-1.31378 0.86341,-2.703037 0.929242,-4.112343c-0.162048,-0.253557 -0.383597,-0.30191 -0.605146,-0.094347c-0.221549,0.206384 -2.411724,5.285782 -2.692775,5.802332c-0.281051,0.516549 -1.449567,3.70901 -2.880143,3.407101c0,0 -1.491344,-0.509473 -0.281051,-2.382258c0.470951,-1.268965 1.020393,-2.513164 1.64453,-3.723162c0.696298,-1.304345 1.214091,-2.686527 1.541984,-4.112343c-0.059502,-0.405692 -0.495004,0.254737 -0.664648,0.412768c-0.17091,0.15921 -2.854823,4.414254 -3.297922,5.034584c-0.443099,0.617972 -1.252071,1.231226 -1.840759,1.103858c0,0 -1.048245,-0.15921 -0.059502,-2.055582c0,0 2.096491,-3.437764 2.752277,-4.930803c0.655786,-1.493039 1.482483,-4.676066 1.704032,-5.033405c0,0 -1.210294,0.872708 -1.815439,1.389257c-0.605146,0.516549 -2.692775,1.127445 -3.468832,0.793693c-0.776056,-0.332573 -1.150791,-0.793693 -0.383597,-1.182874c0.903922,-0.56844 1.758469,-1.204102 2.557314,-1.896372c0.443099,-0.365594 2.914325,-2.159364 3.297922,-2.778515c0.383597,-0.619151 3.13714,-2.563876 3.630879,-2.976643c1.171046,-1.284296 2.169918,-2.69832 2.975092,-4.20669c0.545645,-1.238302 4.01321,-9.192922 4.560121,-11.352285c0.545645,-2.159364 1.985083,-9.701215 2.557314,-11.50324c0.845685,-2.082707 1.952167,-4.06517 3.297922,-5.906113c0.997606,-1.43761 3.519471,-5.128931 3.74102,-7.081911c0.355745,-2.818612 0.887463,-5.614817 1.59389,-8.375642c0.443099,-1.174618 0.443099,-4.414254 0.332958,-6.16085s-1.815439,-8.986538 2.914325,-13.400792c4.729764,-4.414254 9.374706,-5.033405 12.101664,-4.572285c4.253749,-1.140417 8.160616,-3.193641 11.401568,-5.999281l0.000001,0.000004l0.000004,-0.000004z" fill="#E6E6E6"/>
  </g>
 </g>
</svg>