<?xml version="1.0" standalone="no"?><!DOCTYPE svg PUBLIC "-//W3C//DTD SVG 1.1//EN" "http://www.w3.org/Graphics/SVG/1.1/DTD/svg11.dtd"><svg t="1613826680651" class="icon" viewBox="0 0 1024 1024" version="1.1" xmlns="http://www.w3.org/2000/svg" p-id="37165" xmlns:xlink="http://www.w3.org/1999/xlink" width="200" height="200"><defs><style type="text/css"></style></defs><path d="M949.81368749 547.29952137c-23.78382543-80.84434356-70.58447142-189.21216563-118.08588851-272.46482935-47.65243405-83.55337331-98.59544458-161.71650544-172.77252639-195.94036389-27.76590153-14.62611282-54.72505458-10.8228733-78.03331065-2.04534976-26.08881942 7.80386118-47.56897646 22.53330017-61.4837211 29.5714795-1.15779619 0.26096726-2.318241 0.5312086-3.32104471 0.54710423-17.29672586 0.45702509-73.29085254-57.36652496-137.2676757-32.33879712-60.92999269 26.94855596-98.90145142 66.77593334-132.36227797 116.04318738l-0.09272906 0.1205487-0.85443799 1.22138132c-2.17782115 3.20844579-4.23244498 6.86729121-6.37714923 10.15521908-16.34028603 24.10705481-31.83805678 49.76269454-46.89204948 76.16149763-47.5014171 83.25001509-94.30206179 191.62048709-118.08588851 272.46482936-10.38041954 28.22689955-6.0565698 49.05530058 4.59938962 62.20701198l6.63679221 6.51756912 6.33343399 9.072932c1.82809905 3.62307862 2.62159923 7.7349762 3.95955503 11.75414342 4.08142803 12.3913281 6.09101229 27.22012161 5.87773451 32.18513026 15.92300326 167.86977855 133.79561273 231.1710003 219.99707928 265.61078514 31.21146918 12.48670709 102.76827737 17.63320224 190.52627732 17.51000492 83.04601009-0.11657447 122.70647362-1.17369184 175.45506212-16.38267698 1.33398156-0.33647638 2.48118066-0.71136819 3.73832879-1.0637415 1.74199283-0.51796159 3.37138414-0.91404887 5.14649514-1.46380304 32.52293097-10.10355535 80.71849631-29.92120289 124.39017857-68.87824669 50.43697164-41.75217974 92.5044323-103.34187692 101.56279168-198.82822893-0.21327777-4.96236003 1.79763079-19.79247785 5.87641021-32.18513026 1.3379558-4.01916721 2.13145726-8.1310635 3.95955501-11.75414343l6.33343399-9.072932 6.63679222-6.51624479c10.65595941-13.15303572 14.98245908-33.98143675 4.59938961-62.2083363z m-101.52040202 102.06750756c-28.53025907 29.71852221-79.20037963 24.93764739-131.66415545 34.40799228-65.07103293 12.84835318-140.25091973 14.58504619-208.12371278 48.13860179-2.06787085-0.78687731-4.05890823-1.42671193-6.11088216-2.18709522-22.37301043-9.65977856-45.32756889-16.51912131-68.41327442-21.49870261-47.85776336-12.39000379-96.18712313-19.7023974-154.73131414-26.64652204-45.40970086-10.24662384-88.13951591-21.62984966-115.40467709-41.6250082-16.35353305-11.99391521-11.9806682-24.91247769-7.29384805-34.01720354l0.1231986-0.21327777s37.92906907-33.49261909 46.69731854-43.04906891c28.55940171-28.82301889 59.23568935-65.14256652 90.61672105-112.40686173 2.89448919-3.86947458 5.86316189-7.81180964 8.73778122-11.64684174 4.21654934-5.61941587 8.21849532-11.66406298 12.15288063-17.87429835l0.72064098 0.10730169c12.71985602-16.79068695 22.45646802-32.29243195 31.59828499-46.12769451-0.00397424-0.36429472-0.01722125-0.72991505-0.0225198-1.09420848 4.18608109-6.33740822 8.31519861-12.39795227 12.46683723-17.9180149-0.0834563 0.49411619-0.16426396 0.99088231-0.2543444 1.4849985 13.83128703-18.46511914 28.65345638-32.11492098 52.8214477-38.49604446 62.66668571-3.83635769 120.76445002-3.59261037 181.14468856-1.4002179l3.8363564 0.15101695 20.94894973 1.31013745c16.18661917 6.4910738 29.11975425 17.43317149 40.51092597 30.32523994-0.16691388-0.61731482-0.43980385-1.18826445-0.60804075-1.80690357a206.89305738 206.89305738 0 0 1 16.67278818 21.28674913c-0.04371526 0.29938398-0.14041856 0.57359955-0.1828108 0.87298354 11.6309448 17.00396474 21.89346685 35.4849808 32.59579146 52.70487323 0.20268067-0.02914394 0.40933559-0.09405469 0.61069066-0.12584724 4.37286484 6.99711269 8.82123751 13.8140658 13.53455168 20.09451174 38.03239652 50.72973276 102.8808776 133.85257501 126.33485209 152.30974698 23.45264889 18.4598206 18.95261249 34.21061143 0.68487417 54.93965795z" p-id="37166" fill="#4d0878"></path><path d="M662.77043481 388.80470873c-12.30787181-15.00233024-26.50477788-27.66389839-44.630772-34.93390234l-20.94894973-1.31013616-3.8363564-0.15101695c-23.5029883-0.85311236-46.62710925-1.07963845-69.84131065-1.21740838-9.10207594 38.56360513-10.05984007 57.88183664-10.483747 94.18018879-0.30600813 7.45811201 2.19371808 11.32626227 6.2128853 13.85513242 17.23446505 4.93056747 35.80556027 7.09381729 53.83485108 7.6117776 30.08414255 0.8199955 58.67798674-3.0176878 77.12853327-6.48709958 8.55497041-2.98456964 12.33304151-10.96064194 15.10168347-17.44774281 1.76716125-4.68947007 1.79763079-9.62268617 1.46380302-14.58504619a260.46561559 260.46561559 0 0 0-4.00062036-39.5147464zM672.6739594 431.02980921l0.30600813 4.47619229c0.18280953 3.25613529 2.07052076 6.03007578 6.21023537 8.192 7.14415542 1.27701929 13.73723236 1.31411169 20.19121506 0.89020477-8.34434256-14.0326434-16.76949149-28.35274809-26.0490784-41.70846319-0.72991505 9.24646875-1.07301429 18.62408455-0.65838016 28.15006613zM443.17606697 464.37273566c19.73154134-1.18826445 38.06286477-1.76451262 54.68663785-4.14236453 4.17283408-1.64396393 8.04098434-3.86550034 9.83596523-9.89557742l-0.36694463-35.71812975c-0.7232909-21.87624561-3.35283859-43.22658116-9.18553225-63.59133166-28.14344326 0.22255055-56.48691858 0.98028523-85.93784937 2.78453758-25.95237509 6.85139558-41.12691647 22.20609786-55.86960376 42.79605011-0.40403575 2.94085438-1.14322358 5.80354971-1.49824551 8.75765238l-3.22566704 33.4330056 0.48616773 5.44985338c1.7380186 6.75999083 5.08555735 12.33304151 10.44533157 13.18350397 24.99725958 7.64357145 53.40829426 8.58676427 80.62974018 6.94280034zM324.38675742 443.76423785l13.89089923 2.06389659c4.90274783-0.94319281 6.60764827-2.46528373 8.3721609-7.36803156l0.67030284-4.04963546 0.24374732-19.18178719c0.00397424-1.92347804-0.1073017-3.8615274-0.11260023-5.78367982-6.94544897 10.49831961-14.39693812 22.01136564-23.06451006 34.31923744zM612.08044308 646.8540557c-1.14454918 0.81337134-1.57772887 16.27934954-2.23213479 17.58948569 9.74985901-2.04799967 25.59867747-4.33974667 35.26110465-6.03272441-5.89230585-6.33608391-24.82372284-15.28581729-33.02896986-11.55676128zM508.67233111 647.59589216c-22.32002239-4.66297604-54.44289183-5.93734541-76.70197772-2.72095246-2.89448919-0.63718468-3.32104603 26.03583139-5.90687846 25.61192448-2.46793235-0.35104771-1.15779619-24.62501639-3.25878391-25.11780829-14.56782494-4.28013447-32.05928301 7.41042252-38.92657552 14.767857 14.47509587 3.35946274 35.96452569 8.64770078 50.10314516 12.89471708 23.08437993 5.77440705 46.04026269 13.72795957 68.41327442 24.93234884 2.05197391 0.880932 4.04301261 1.62409277 6.11088216 2.53549431 1.42008778-0.81469565 2.88786634-1.3869709 4.31325265-2.16854966 0-11.35938045 0.31925515-33.76020922-0.79747442-41.01696616-0.48616773-3.13823521-2.76864194-9.11929718-3.34886436-9.71806514zM520.02906164 647.59589216c-0.39343867 0.84118967-2.67591287 7.42366954-2.95277706 11.41369279-0.55372838 7.08321891-0.91802311 27.64932707-1.16441905 37.76480511 28.90780079-15.3586765 58.95087669-24.61706793 88.93036747-31.18497518-1.42141338-2.60172806-4.05890823-18.21474897-9.02259389-19.7275671-19.67060483-1.19753723-51.97628379-3.45881467-75.79057747 1.73404438z" p-id="37167" fill="#4d0878"></path></svg>