<?xml version="1.0" standalone="no"?><!DOCTYPE svg PUBLIC "-//W3C//DTD SVG 1.1//EN" "http://www.w3.org/Graphics/SVG/1.1/DTD/svg11.dtd"><svg t="1613819787018" class="icon" viewBox="0 0 1024 1024" version="1.1" xmlns="http://www.w3.org/2000/svg" p-id="905" xmlns:xlink="http://www.w3.org/1999/xlink" width="200" height="200"><defs><style type="text/css"></style></defs><path d="M512 731.351579s107.789474-49.583158 107.789474 19.132632-107.789474 152.522105-107.789474 152.522105zM512 731.351579s-107.789474-49.583158-107.789474 19.132632 107.789474 152.522105 107.789474 152.522105z" p-id="906" fill="#0d8a15"></path><path d="M489.903158 881.178947h44.193684v100.783158h-44.193684z" p-id="907" fill="#0d8a15"></path><path d="M772.042105 42.307368h-53.894737c-22.366316 117.221053-35.570526 221.237895-44.463157 292.917895a365.136842 365.136842 0 0 0-161.684211-32.606316 365.675789 365.675789 0 0 0-163.031579 32.606316c-7.545263-71.68-20.48-175.696842-42.846316-292.917895h-53.894737a1616.842105 1616.842105 0 0 1 59.553685 317.978948 153.6 153.6 0 0 0-53.894737 122.071579 233.633684 233.633684 0 0 0 170.037895 218.273684 87.309474 87.309474 0 0 1 62.248421 80.842105v42.846316h43.654736V781.473684a87.578947 87.578947 0 0 1 62.517895-80.842105 233.364211 233.364211 0 0 0 169.768421-218.004211 153.061053 153.061053 0 0 0-53.894737-122.071579 1632.471579 1632.471579 0 0 1 59.823158-318.248421z" p-id="908" fill="#0d8a15"></path></svg>