<?xml version="1.0" standalone="no"?><!DOCTYPE svg PUBLIC "-//W3C//DTD SVG 1.1//EN" "http://www.w3.org/Graphics/SVG/1.1/DTD/svg11.dtd"><svg t="1613985829414" class="icon" viewBox="0 0 1024 1024" version="1.1" xmlns="http://www.w3.org/2000/svg" p-id="2244" xmlns:xlink="http://www.w3.org/1999/xlink" width="200" height="200"><defs><style type="text/css"></style></defs><path d="M783.76556 106.068819h-35.867065a50.645624 50.645624 0 0 1-50.534923-54.1327l2.269366-31.826485a18.791464 18.791464 0 0 0-27.453803-17.961208c-18.542387 9.686322-79.483187 19.483344-160.184083 19.483344C431.294156 21.604095 370.325681 11.834748 351.810969 2.148426a18.819139 18.819139 0 0 0-27.481478 17.988883l2.269367 31.771135a50.562599 50.562599 0 0 1-50.534924 54.160375H240.224544a18.819139 18.819139 0 0 0-18.819139 18.819139V199.832412a18.819139 18.819139 0 0 0 18.819139 18.819139h52.416838a50.700975 50.700975 0 0 1 40.322773 20.396625l-0.166052 0.083026a18.763789 18.763789 0 0 0-8.468612 17.047926l2.269367 31.771134a50.562599 50.562599 0 0 1-50.534924 54.160376H240.224544a18.819139 18.819139 0 0 0-18.819139 18.819139v74.916778a18.819139 18.819139 0 0 0 18.819139 18.819139h52.416838c15.940918-0.027675 30.968554 7.472305 40.488824 20.285925l-0.332103 0.138376a18.791464 18.791464 0 0 0-8.468612 17.075601l2.269367 31.771135a50.562599 50.562599 0 0 1-50.534924 54.160375H240.224544a18.819139 18.819139 0 0 0-18.819139 18.791464v74.999804a18.819139 18.819139 0 0 0 18.819139 18.763788h52.416838c15.940918 0 30.968554 7.527656 40.488824 20.285925l-0.332103 0.166051a18.763789 18.763789 0 0 0-8.468612 17.047926l2.269367 31.79881a50.562599 50.562599 0 0 1-50.534924 54.160375H240.224544a18.819139 18.819139 0 0 0-18.819139 18.791464v74.972129a18.819139 18.819139 0 0 0 18.819139 18.791464h52.416838c26.291444 0.083026 48.182531 20.230574 50.451897 46.411318 1.632837 44.944532 118.449875 49.815368 168.901773 49.815368 50.451898 0 167.268936-4.870836 168.901773-49.815368a50.811675 50.811675 0 0 1 50.451898-46.411318h52.416837a18.819139 18.819139 0 0 0 18.819139-18.819139v-74.944454a18.791464 18.791464 0 0 0-18.819139-18.819139h-35.867065a50.645624 50.645624 0 0 1-50.534923-54.1327l2.269366-31.79881a18.763789 18.763789 0 0 0-8.468612-17.047926l-0.332103-0.166051a50.534923 50.534923 0 0 1 40.488824-20.285925h52.416838a18.819139 18.819139 0 0 0 18.819139-18.791463v-74.972129a18.819139 18.819139 0 0 0-18.819139-18.819139h-35.83939a50.645624 50.645624 0 0 1-50.534923-54.105025l2.269366-31.826485a18.791464 18.791464 0 0 0-8.468612-17.047926l-0.332103-0.166051a50.534923 50.534923 0 0 1 40.488824-20.285925h52.416838a18.819139 18.819139 0 0 0 18.819139-18.791464V360.902101a18.819139 18.819139 0 0 0-18.819139-18.791463h-35.83939a50.645624 50.645624 0 0 1-50.534923-54.1327l2.269366-31.826485a18.763789 18.763789 0 0 0-8.468612-17.020251l-0.249077-0.138376a50.424223 50.424223 0 0 1 40.405798-20.341275h52.416838A18.819139 18.819139 0 0 0 802.584699 199.832412V124.860283a18.819139 18.819139 0 0 0-18.791464-18.791464z m-35.867065 745.625358h17.075601v37.361526h-33.625373a88.588329 88.588329 0 0 0-87.647373 77.85035c-11.263808 7.084852-56.817195 18.404011-131.706298 18.404011-74.889103 0-120.387139-11.319159-131.733973-18.404011a88.588329 88.588329 0 0 0-87.619697-77.822675H259.016008v-37.389201h17.075601a88.283902 88.283902 0 0 0 88.007151-94.400122l-0.166052-2.546119a19.206592 19.206592 0 0 0 2.878222-0.498154 693.817376 693.817376 0 0 0 145.184122 13.007346 693.817376 693.817376 0 0 0 145.128772-13.007346 19.206592 19.206592 0 0 0 2.878222 0.498154l-0.193727 2.546119a88.117851 88.117851 0 0 0 88.034825 94.372447h0.055351z m0-236.014143h17.075601v37.389201h-33.625373a88.00715 88.00715 0 0 0-85.128929 65.230457 677.51668 677.51668 0 0 1-134.224742 11.346833 677.738082 677.738082 0 0 1-134.224741-11.346833 88.00715 88.00715 0 0 0-85.128929-65.230457H259.016008v-37.389201h17.075601a88.283902 88.283902 0 0 0 88.007151-94.372448l-0.166052-2.573794a19.317293 19.317293 0 0 0 2.878222-0.470478 693.817376 693.817376 0 0 0 145.184122 12.979671 693.817376 693.817376 0 0 0 145.184123-13.007346 19.317293 19.317293 0 0 0 2.878221 0.498153l-0.193727 2.546119a88.090176 88.090176 0 0 0 88.034826 94.400123z m0-236.014144h17.075601v37.389201h-33.625373a88.00715 88.00715 0 0 0-85.128929 65.230457 677.51668 677.51668 0 0 1-134.224742 11.346834 677.738082 677.738082 0 0 1-134.224741-11.346834 88.00715 88.00715 0 0 0-85.128929-65.230457H259.016008v-37.361526h17.075601a88.283902 88.283902 0 0 0 88.007151-94.427797l-0.249077-3.597777c48.736035 9.907723 98.413027 14.446457 148.145369 13.56085a681.695636 681.695636 0 0 0 148.14537-13.56085l-0.276753 3.653127a88.090176 88.090176 0 0 0 88.034826 94.372447z m17.075601-198.652618h-33.625373a88.145526 88.145526 0 0 0-85.211955 65.230457 677.433655 677.433655 0 0 1-134.141716 11.402185 677.738082 677.738082 0 0 1-134.224741-11.346834A88.588329 88.588329 0 0 0 292.641382 181.013272H259.016008v-37.361526h17.075601a88.283902 88.283902 0 0 0 88.007151-94.427797l-0.249077-3.653127c48.736035 9.935398 98.413027 14.501807 148.145369 13.6162a681.695636 681.695636 0 0 0 148.14537-13.6162l-0.276753 3.680802a88.090176 88.090176 0 0 0 88.034826 94.372447h17.075601v37.361526z" p-id="2245" fill="#2c2c2c"></path></svg>