<?xml version="1.0" standalone="no"?><!DOCTYPE svg PUBLIC "-//W3C//DTD SVG 1.1//EN" "http://www.w3.org/Graphics/SVG/1.1/DTD/svg11.dtd"><svg t="1613971222651" class="icon" viewBox="0 0 1024 1024" version="1.1" xmlns="http://www.w3.org/2000/svg" p-id="1861" xmlns:xlink="http://www.w3.org/1999/xlink" width="200" height="200"><defs><style type="text/css"></style></defs><path d="M367.74412 266.89746l11.258702 11.258702s14.389464-2.76952 22.095955 12.041392c7.706491 14.750706 32.69238 27.394167 32.69238 27.394168s11.258702 4.334901 22.276576 14.750705 23.661336 5.298213 23.661336 5.298213 20.711195-7.285042 38.23142-1.38476 30.163688-4.75635 31.548448-8.669803c1.38476-3.913452 5.900282-4.15428 5.900282-4.15428 11.619944 3.732832 23.420508-11.258702 23.420508-11.258702l32.090311-31.126999s-0.60207-5.117592 9.091251-4.936971c9.633114 0.180621 17.941675-12.222013 17.941674-12.222013l0.481656 25.16651v-20.289746s0-14.028222-1.565381-19.446849c-1.565381-5.35842-14.690499-2.468485-14.690499-2.468485s-8.007526 6.682973-9.452493 10.235183c-1.444967 3.552211-12.342427 9.572907-12.342427 9.572907s-18.904986 8.428975-26.671684 14.570085c-7.766698 6.201317-8.188147 0.722484-8.188146 0.722483s4.15428-11.740357 3.130762-20.711194c-0.963311-8.970837-7.405456-1.38476-7.405457-1.38476s-2.167451 3.672625-3.431796 6.502351c-1.264346 2.829727-6.080903 2.468485-6.020696 1.685795 0.120414-0.78269-24.323612-17.64064-28.477893-20.169332-4.15428-2.588899-11.49953-4.15428-14.208843-0.662276-2.649106 3.431797-10.957667 3.37159-14.509878-0.782691-3.552211-4.15428-10.415804-0.60207-10.415804-0.602069s-24.805268 14.389464-29.92286 18.904985-7.104421 1.083725-7.104421 1.083726-1.083725-2.829727-6.502352-6.923801-5.53904 1.565381-5.539041 1.565381l2.047037 22.878645s-2.348071 12.583255-10.837253-1.565381c-8.489182-14.208843-31.90969-19.085607-31.90969-19.085606s-4.15428-1.565381-4.936971-6.502352c-0.78269-4.936971-15.774224-9.091251-15.774223-9.091251-12.643462 0.60207-9.452493 12.462841-7.224836 18.001881l1.264346 1.806209zM641.264346 369.369708l-0.120414-0.301034-6.201317-0.722484c-15.774224 2.588899-4.15428 23.420508-4.15428 23.420508s-3.37159 37.268109-5.117592 48.888053c-1.746002 11.619944-6.682973 14.208843-6.682973 14.208843-17.158984-16.737535-61.471308-19.928504-77.426152-21.554093-15.954845-1.625588-24.805268 20.771402-24.805268 20.771402l-2.167451 13.968015s-2.76952 27.394167-7.706491 34.257761c-4.936971 6.923801-8.489182 0-8.489181 0l-2.5889-8.248354-6.9238-37.809971c-6.080903-21.855127-18.543744-22.457197-42.144873-20.711195-23.661336 1.746002-60.086548 20.711195-60.086548 20.711195-8.669802-0.963311-13.606773-44.312324-10.235183-56.173095s0.963311-29.140169 0.963311-29.14017c-5.238006-17.580433-13.004704-6.321731-14.208843-4.395108-8.428975 26.009407-2.287865 31.608655-2.287864 31.608655-1.746002 65.204139 8.669802 83.145814 8.669802 83.145814-0.421449 21.253057 1.565381 33.896519 1.565381 33.896519l17.339605 38.592662c4.334901 77.064911 18.242709 72.730009 18.242709 72.73001l15.65381 12.583255c12.824083 43.349012 33.174036 41.60301 33.174036 41.60301l-0.361242 17.158984c-0.361242 0.060207-0.662277 0.120414-1.083725 0.180621-9.873942 1.38476-8.489182 14.509878-8.248354 24.022577 0.180621 9.572907 7.164628 12.703669 7.164629 12.703669l0.361242 16.015052c-0.662277 0.722484-1.38476 1.625588-2.287865 2.709313-10.235183 12.342427-1.264346 32.030103-1.264346 32.030104v10.536218h105.60301l0.903105-11.138288c1.565381-0.662277 4.15428-5.238006 4.15428-5.238005 2.047037-26.972719-3.732832-28.056444-3.732832-28.056445l-0.120414-16.135465c2.829727-2.76952 5.298213-9.452493 5.298213-9.452493 2.468485-18.122295-4.997178-29.380997-4.997178-29.380997l0.180621-15.352775c11.619944-6.080903 18.543744-18.302916 22.336783-29.561619 3.853246-11.258702 14.690499-23.17968 14.690498-23.17968l10.957667-4.033866c13.907808-15.352775 10.054563-47.864534 10.054563-47.864534l2.950141-14.26905 5.117592-17.821261 10.656632-26.491063 1.083725-28.477893c12.703669-14.208843 9.753528-94.404516 9.753528-94.404515 7.706491-18.182502-3.431797-25.828786-3.431797-25.828787z m-106.265287 266.355598c-16.135466 10.235183-34.859831 13.968015-52.801505 1.746002-17.941675-12.222013-26.852305-26.430856-28.357479-34.498589 0 0-7.706491-11.800564 8.489182-14.389464 16.135466-2.588899 26.430856 1.204139 26.430856 1.204139s13.787394 8.669802 41.60301 0.421449c27.755409-8.248354 31.729069 5.177799 31.729069 5.177799s-10.957667 30.103481-27.093133 40.338664z" fill="#0a8127" p-id="1862"></path></svg>