<?xml version="1.0" standalone="no"?><!DOCTYPE svg PUBLIC "-//W3C//DTD SVG 1.1//EN" "http://www.w3.org/Graphics/SVG/1.1/DTD/svg11.dtd"><svg t="1613970461449" class="icon" viewBox="0 0 1024 1024" version="1.1" xmlns="http://www.w3.org/2000/svg" p-id="3655" xmlns:xlink="http://www.w3.org/1999/xlink" width="200" height="200"><defs><style type="text/css"></style></defs><path d="M504 209.642667a173.141333 173.141333 0 0 0-79.189333 19.626666 26.944 26.944 0 0 0-10.346667 37.738667c14.08 23.104 42.837333 93.952 64.448 158.122667 8.106667 24.192 42.048 24.192 50.197333 0l4.693334-13.824c20.906667-60.202667 46.656-122.88 59.733333-144.32a26.944 26.944 0 0 0-10.368-37.738667 173.44 173.44 0 0 0-79.168-19.626667z m3.904 46.826666c5.333333 0.405333 11.093333 1.642667 16.981333 3.84l2.474667 1.002667-0.106667 0.362667c-5.973333 20.224-12.650667 45.333333-19.477333 72.661333l-3.797333 15.488-0.853334-3.626667a2078.293333 2078.293333 0 0 0-19.797333-75.52l-2.688-9.322666 2.496-1.002667c6.826667-2.581333 13.824-3.925333 20.842667-3.989333l3.925333 0.128v-0.021334zM29.525333 174.357333c37.525333-88.661333 129.066667-83.2 194.112-24.192l19.178667 18.069334c1.941333 1.770667 3.626667 3.285333 5.632 5.013333l1.557333 1.365333c17.749333 15.296 34.517333 25.92 52.352 31.957334 11.242667-16.32 57.749333-40.042667 71.04-45.077334 13.269333-5.034667 40.277333-21.674667 87.36-27.477333s66.666667-3.946667 125.824 8.106667c59.178667 12.010667 112.32 54.037333 125.866667 68.330666 0.170667 0.192 40.106667-14.293333 54.997333-29.013333 30.314667-29.994667 67.114667-55.893333 74.794667-59.818667 19.2-9.813333 57.088-20.778667 92.330667-8.597333 35.242667 12.16 53.845333 41.194667 63.594666 71.424 9.749333 30.208 3.157333 70.357333-14.933333 99.584-18.112 29.226667-46.698667 49.088-77.098667 65.066667-5.098667 29.333333-21.973333 55.018667-49.408 66.282666-27.413333 11.264-79.338667 19.456-107.029333-29.888-27.712-49.344 18.154667-87.808 43.008-101.461333 24.874667-13.653333 79.872-5.184 91.434667 12.416 36.949333-16.213333 50.538667-44.8 54.826666-51.904 8.064-13.226667 6.485333-27.157333 1.92-39.914667-10.538667-29.376-41.472-32-51.797333-29.376-22.378667 5.632-41.984 18.282667-46.848 23.530667-8.938667 9.685333-25.6 30.656-63.914667 53.610667-27.882667 16.725333-49.088 12.458667-49.621333 14.869333-6.613333 30.570667-39.253333 65.792-62.037333 106.069333-22.805333 40.256-43.52 82.218667-53.184 131.029334-9.664 48.789333 4.48 42.197333 12.16 59.221333 4.992 11.114667 3.178667 22.933333 2.816 26.389333-2.837333 27.136-13.525333 75.242667-14.976 85.226667-2.112 14.464-20.181333 141.162667-30.229334 227.925333-15.253333-3.136-56.832-11.050667-63.829333-12.458666 2.709333-13.952 15.573333-119.68 19.264-136.256 3.690667-16.597333 14.634667-98.837333 16.341333-111.04 1.706667-12.202667 11.712-53.717333 8.576-56.853334-5.205333-5.205333-10.581333-14.08-14.677333-26.368-9.024-27.093333-1.365333-58.56 0-65.386666 5.034667-25.130667 23.168-74.794667 30.058667-90.666667 6.890667-15.850667 35.541333-66.730667 39.936-74.24 4.373333-7.530667 23.786667-35.2 29.482666-42.944 5.696-7.744 19.52-33.322667 18.282667-37.226667-2.901333-9.088-9.173333-13.290667-15.786667-17.237333-15.978667-9.514667-42.965333-22.869333-53.802666-27.818667-18.773333-8.576-62.08-15.189333-72.874667-16.149333-41.173333-3.712-99.669333 11.221333-118.336 19.84-26.837333 12.373333-52.949333 26.24-58.688 36.224-8.682667 15.061333 49.28 86.442667 55.424 98.197333 11.52 21.973333 27.264 50.453333 37.12 75.477334 15.701333 39.936 28.138667 90.026667 28.138667 105.258666 0 40.768-2.133333 36.970667-15.637334 59.498667-6.208 10.325333-0.362667 31.36 3.2 49.173333 4.522667 22.570667 13.589333 78.378667 16.213334 97.322667 5.162667 37.568 13.354667 110.933333 21.205333 161.194667-9.344 1.92-57.173333 9.642667-65.28 12.458666-12.138667-65.792-33.258667-242.730667-35.413333-253.077333-4.309333-20.906667-10.325333-66.474667-10.325334-74.965333 0-8.490667 16.106667-26.026667 16.981334-28.245334 4.266667-10.752 1.28-28.757333 0-37.482666-3.733333-25.066667-25.6-78.506667-29.717334-87.552-6.4-14.208-20.629333-39.018667-42.624-74.432-26.453333-41.493333-45.546667-69.952-45.546666-85.162667-25.557333-7.594667-40.32-10.709333-63.104-29.418667l-10.88-9.28c-6.826667-6.186667-13.546667-12.458667-20.138667-18.88-40.170667-38.272-85.226667-41.813333-103.68 1.834667-11.562667 27.264 0.277333 54.229333 53.632 80.448 9.770667-10.688 40.106667-13.952 70.186667-13.952 30.08 0 88.042667 34.709333 77.781333 91.776-10.261333 57.066667-72.149333 62.4-108.181333 50.645333-36.032-11.754667-56.746667-53.077333-56.746667-66.261333-88.618667-39.274667-113.493333-120.042667-90.282667-174.762667z m798.037334 191.701334c14.784-4.373333 22.762667-15.957333 20.650666-23.552-1.962667-7.04-13.653333-12.074667-27.989333-7.829334l-3.285333 1.130667c-12.672 5.013333-19.328 15.424-17.365334 22.464 1.92 7.04 13.610667 12.053333 27.989334 7.786667zM226.133333 355.328c2.133333-7.68-5.973333-19.328-20.949333-23.722667l-3.050667-0.789333c-13.077333-2.773333-23.402667 2.090667-25.237333 8.618667-2.133333 7.658667 5.952 19.306667 20.949333 23.722666 14.485333 4.266667 26.325333-0.746667 28.288-7.829333z" fill="#b01663" p-id="3656"></path></svg>