<svg width="120" height="240" xmlns="http://www.w3.org/2000/svg">
 <!-- Created with Method Draw - http://github.com/duopixel/Method-Draw/ -->

 <g>
  <title>background</title>
  <rect x="-1" y="-1" width="122" height="242" id="canvas_background" fill="none"/>
  <g id="canvasGrid" width="100%" height="100%" x="0" y="0" overflow="visible" display="none">
   <rect id="svg_1" width="1420" height="731" x="1" y="1" stroke-width="0" fill="url(#gridpattern)"/>
  </g>
 </g>
 <g>
  <title>Layer 1</title>
  <!-- Created with Method Draw - http://github.com/duopixel/Method-Draw/ -->
  <!-- Created with Method Draw - http://github.com/duopixel/Method-Draw/ -->
  <g stroke="null" id="svg_30">
   <g stroke="null" id="svg_27" transform="matrix(0.977898938238706,0,0,0.7823567136074117,-10.509727282953966,-3.6388827585010812) ">
    <title stroke="null" transform="translate(5.217352390289307,0) translate(-2.774505615234375,-1.2893260717391968) translate(0,1.0587912797927856) translate(0,-1.0587912797927856) translate(0,-1.0587912797927856) translate(0,-1.0587912797927856) translate(0,-1.0587912797927856) translate(0,-1.0587912797927856) translate(0,-1.0587912797927856) translate(0,-1.0587912797927856) translate(0,-1.0587912797927856) translate(0,-1.0587912797927856) translate(0,-1.0587912797927856) translate(0,-1.0587912797927856) translate(0,-1.0587912797927856) translate(0,-1.0587912797927856) translate(0,8.470330238342285) translate(0.9780428409576416,0) translate(-0.9780428409576416,0) translate(-0.9780428409576416,0) translate(-12.714556694030762,1.0587912797927856) translate(4.7981977462768555,0) translate(-2.9625353813171387,-6.489253520965576) translate(-69.72814178466797,-28.800752639770508) translate(-926.1715698242188,-357.73565673828125) translate(1.515829086303711,1.515829086303711) translate(1026.2386474609375,0) translate(0,404.0355224609375) ">background</title>
    <rect stroke="null" fill="none" id="svg_25" height="302" width="102" y="7.059989" x="21.440675"/>
    <g stroke="null" display="none" overflow="visible" y="0" x="0" height="100%" width="100%" id="svg_24">
     <rect stroke="null" fill="url(#gridpattern)" stroke-width="0" y="8.059989" x="22.440675" height="731" width="1420" id="svg_28"/>
    </g>
   </g>
   <g stroke="null" id="svg_29" transform="matrix(0.977898938238706,0,0,0.7823567136074117,-10.509727282953966,-3.6388827585010812) ">
    <title stroke="null" transform="translate(5.217352390289307,0) translate(-2.774505615234375,-1.2893260717391968) translate(0,1.0587912797927856) translate(0,-1.0587912797927856) translate(0,-1.0587912797927856) translate(0,-1.0587912797927856) translate(0,-1.0587912797927856) translate(0,-1.0587912797927856) translate(0,-1.0587912797927856) translate(0,-1.0587912797927856) translate(0,-1.0587912797927856) translate(0,-1.0587912797927856) translate(0,-1.0587912797927856) translate(0,-1.0587912797927856) translate(0,-1.0587912797927856) translate(0,-1.0587912797927856) translate(0,8.470330238342285) translate(0.9780428409576416,0) translate(-0.9780428409576416,0) translate(-0.9780428409576416,0) translate(-12.714556694030762,1.0587912797927856) translate(4.7981977462768555,0) translate(-2.9625353813171387,-6.489253520965576) translate(-69.72814178466797,-28.800752639770508) translate(-926.1715698242188,-357.73565673828125) translate(1.515829086303711,1.515829086303711) translate(1026.2386474609375,0) translate(0,404.0355224609375) ">Layer 1</title>
    <g stroke="null" id="svg_22">
     <path stroke="null" id="svg_23" d="m89.730045,285.440159c0,0 0.55826,6.86542 1.87671,9.30039c1.31993,2.43497 3.84398,8.66047 2.02815,10.14075s-10.23281,2.25235 -11.45029,0.84185c-1.216,-1.40902 -1.12543,-3.04223 -0.84036,-5.16243s-0.28359,-3.86477 -0.19302,-7.52465s-1.4105,-5.54698 -0.84185,-7.6167c0.71268,-2.75419 1.24421,-5.55292 1.59164,-8.37689c-0.11284,-3.58861 -0.4276,-7.16682 -0.94281,-10.72128c-0.55677,-4.70514 0.38604,-8.18387 -1.12543,-13.07163s-1.8767,-14.19854 0,-22.19979s0.65774,-7.8988 0.37416,-8.74213c-1.29915,-4.8536 -2.05488,-9.83638 -2.25086,-14.85776c0,-6.02358 -1.11653,-14.39008 -1.11653,-17.77825s-1.01407,-14.76571 -0.85075,-16.64241c0.16035,-1.87671 -1.01407,-11.37754 -0.75128,-12.69747c0.26429,-1.31845 -0.09205,-0.56866 -0.09205,-0.56866s-4.0563,2.63689 -6.08445,-0.28358c0,0 -1.13583,20.28447 -1.69409,25.58796s-0.65922,11.15483 -1.01407,14.57121c-0.35485,3.41934 0.4662,7.09852 0.10096,8.84457c-0.36525,1.74309 -1.51146,10.92025 -2.71855,14.7865c-1.20709,3.86329 -1.01408,4.69474 -0.18263,7.79784s1.59313,15.29428 0.37564,21.72319s-1.22788,14.10648 -1.87671,17.58522c-0.64883,3.48023 0.27468,10.91282 0.37564,13.07311c0.10096,2.1603 1.01408,4.42304 0.93242,6.68429c-0.08166,2.25977 -0.65923,7.04656 -0.55827,9.12519s1.50107,4.89815 -1.12543,6.49127c-2.6265,1.59164 -5.07037,1.2264 -6.66201,1.2264c-1.59312,0 -6.28786,-1.40902 -5.53659,-2.72747c0.7498,-1.31993 -0.9428,-2.44387 1.50107,-5.45789c2.44388,-3.00956 1.21749,-3.47725 1.69409,-5.06889c0.39939,-1.15958 0.68001,-2.35479 0.84184,-3.56931c0.3697,-2.65025 0.49442,-5.3302 0.37564,-8.00273c-0.19301,-2.34292 -0.09205,-8.36798 -0.28358,-11.56165s-0.74979,-5.45641 -1.31845,-9.7859c-0.56865,-4.33098 -1.21748,-12.8994 -2.55523,-19.5139c-1.03338,-4.29238 -1.06901,-8.76292 -0.10096,-13.07311c0.65922,-3.67176 0.10096,-9.87647 -0.09206,-13.53783s0.46621,-11.00339 0.09206,-13.8333c-0.37564,-2.82842 -5.98349,-22.53385 -5.59895,-33.1616c0.38455,-10.62775 0,-17.58523 0.94281,-22.85901s2.90118,-12.31144 3.84399,-16.64094c0.9428,-4.33097 3.66136,-7.33163 4.12756,-12.32183c0.46621,-4.98872 0.19302,-14.85628 0.19302,-14.85628s-1.60203,-13.44875 -2.81952,-17.49465c0,0 -0.28358,5.17133 -0.4662,8.75252c-0.18263,3.5797 -1.01408,14.66475 -1.60203,17.39221c-0.58796,2.72746 -0.55678,6.02358 -1.30806,7.6167c-0.75127,1.59164 -1.21748,4.5136 -1.69408,7.80823c-0.4766,3.29612 -1.87522,14.19854 -3.18476,16.92601s-1.69409,5.73999 -2.72746,9.31078c-0.86858,2.86258 -1.15513,5.86917 -0.84185,8.8431c0.28358,2.16029 0.94281,8.27444 0.94281,11.37902c0,3.1031 0.09205,6.48979 -0.94281,6.95748c0,0 -0.84185,-0.09205 -0.93242,-1.78465c0,0 0.19302,-4.13797 0.09206,-4.97981c-0.10096,-0.84185 -0.65922,-2.02815 -1.01408,-1.2264c-0.34594,1.63767 -0.53302,3.30503 -0.55677,4.97981c-0.09206,1.2264 -0.56866,5.93301 -1.50107,6.2062c0,0 -0.94281,0.28359 -0.85224,-1.96579c0.09205,-2.25383 0.10096,-2.72895 0.10096,-4.70661s0.37564,-4.13797 -0.19301,-4.23002c-0.56717,-0.09205 -1.216,1.4105 -1.30806,2.53593s-0.85224,4.70513 -0.94281,6.30716c-0.09205,1.60352 -0.93241,3.28573 -1.59163,3.28573c-0.65923,0 -0.75128,-2.25977 -0.75128,-4.13648s0.40533,-6.58184 0.40533,-6.95896c0,-0.37416 -1.01407,-0.46473 -1.21748,0.28358c-0.20341,0.75128 -1.40902,7.52465 -1.97767,8.45855c-0.56717,0.9339 -1.216,1.12543 -1.50107,0.85224c-0.42315,-1.69409 -0.48551,-3.45499 -0.18262,-5.17283c0.37563,-1.69408 1.01407,-5.07037 1.21748,-6.30716c0.13066,-1.12246 0.1945,-2.24938 0.19302,-3.37778c-0.4766,0.16481 -0.85076,0.53896 -1.01408,1.01556c-0.19301,0.75128 -1.01407,1.78466 -1.69408,1.78466c-0.68001,0 -1.21749,-0.9443 -0.55826,-2.25977c0.77651,-1.17443 1.40753,-2.43794 1.8767,-3.76381c0.37564,-1.50107 0.55826,-2.53445 1.96728,-3.56931c1.4105,-1.03338 3.47874,-3.1031 3.66136,-4.70513s3.66136,-12.69747 3.28573,-18.90367c-0.37416,-6.2062 2.43496,-12.78804 3.0927,-17.49466s2.6265,-12.03825 2.6265,-17.86881c0,-5.83205 0.46621,-14.57269 0.55826,-17.67728c0.09057,-3.1031 -1.95688,-8.36649 -1.01407,-12.78804c0.94281,-4.42303 2.45427,-7.52465 4.7957,-9.55428c2.34291,-2.02815 6.08594,-2.16029 9.12668,-2.53593c3.04222,-0.37564 10.29368,-5.57816 11.7027,-8.38728c1.4105,-2.80913 1.50107,-9.31079 -0.09206,-11.15632c0,0 -1.87522,-2.02815 -2.53593,-8.27444c0,0 -1.40901,-11.93728 1.87671,-16.08415c0,0 3.37629,-4.13797 8.34719,-4.22854c0,0 8.44816,0.28359 10.04128,6.01319c0,0 2.91008,11.85562 -1.87671,23.04163c-0.62062,1.30063 -1.00368,2.70223 -1.12691,4.13797c0,1.79504 0,5.64942 1.01407,7.10001c1.01556,1.45059 7.5974,6.95748 10.97369,7.80823c3.37778,0.85224 8.35759,0 11.64331,4.88776c3.28572,4.88775 3.09419,7.61521 2.81061,11.15483s-1.30954,7.62709 -1.40902,9.41174c-0.10096,1.78466 1.01259,12.69747 0.74979,16.22669c-0.26279,2.69926 -0.22865,5.42078 0.10097,8.11261c0.27467,1.96727 0,6.2062 1.59163,8.8327s3.75194,11.37902 3.66137,15.89262c0.04602,5.1565 0.8359,10.28032 2.34291,15.21262c1.216,3.28572 1.12543,7.09853 1.40902,7.70727c0.28358,0.60874 -0.28359,-0.65922 -0.28359,-0.65922c1.47583,2.01033 3.07341,3.92713 4.78828,5.73999c1.40901,1.216 2.43348,4.5136 2.89969,6.01319c0.46621,1.50255 0.28358,3.67175 -1.12543,1.69408c-1.4105,-1.97767 -2.02964,-2.72746 -2.02964,-2.72746s-0.09057,1.78465 -0.09057,2.72746c0.23459,2.31768 0.64289,4.61011 1.216,6.86691c0.56717,2.1692 1.78466,5.73851 0.56717,6.2062c0,0 -1.49958,-0.28358 -2.25086,-3.38668c0,0 -1.69408,-6.67241 -2.44387,-7.24107c-0.15145,1.53077 -0.15145,3.07341 0,4.60566c0.28358,1.61242 0.85223,7.09852 -0.65774,7.24997c0,0 -1.21749,-0.19153 -1.30954,-3.95386c0,0 -1.31845,-6.67389 -1.96728,-7.52464c-0.43503,1.24272 -0.65774,2.5478 -0.65774,3.86477c0.09057,1.78465 0.18263,6.85503 -0.65922,6.38882c0,0 -1.40902,0.46621 -1.30805,-2.81803c0,0 -0.4766,-3.19515 -0.4766,-4.51212c0,-1.31993 -0.46621,-4.42303 -0.75128,-3.85437c-0.28359,0.56717 -0.37416,5.54697 -0.46621,6.77485c-0.09057,1.22639 -0.93241,1.39862 -1.21451,1.01408c-0.54787,-1.63915 -0.86709,-3.34512 -0.9443,-5.07038c0,-1.40902 -0.18262,-4.70662 -0.09205,-6.59075c0.09205,-1.8871 0.75128,-3.66284 1.12543,-6.01467c0.37564,-2.35331 0.94429,-2.53593 0.55826,-4.79718c-0.38603,-2.26126 -1.68369,-5.2634 -2.91008,-9.49193c-1.34814,-4.08302 -2.36667,-8.2685 -3.04223,-12.51485c-0.47808,-4.0563 -2.72895,-11.75466 -3.04371,-15.32397s-1.52037,-7.70727 -2.18108,-10.88164c-0.65922,-3.17436 -1.01407,-14.39007 -0.93241,-16.74338s-0.19302,-9.62406 -0.75128,-6.58183c-0.55678,3.04222 -0.75128,12.98105 -1.216,15.89262c-0.46621,2.91009 -1.69557,14.76571 -0.65922,18.15388c1.03486,3.38669 3.75193,8.37689 4.5032,11.37903s3.93456,17.77824 3.75193,23.32522s0.7498,19.65494 -0.84184,26.80395c-1.59164,7.1505 -3.56931,14.76571 -4.05482,19.17835c-0.48699,4.41264 -0.4469,7.41329 -0.60874,13.05084c-0.16184,5.64052 -0.09354,9.21873 0.09057,12.60542c0.18262,3.38817 0.47808,12.89049 -0.18263,17.31203c-0.65773,4.42304 -1.01407,10.52679 -1.96579,14.38117c-0.95468,3.85437 -1.69408,13.64176 -2.02815,17.4026c-0.40236,3.84547 -0.58944,7.70727 -0.55826,11.57204" fill="#E6E6E6"/>
    </g>
   </g>
  </g>
 </g>
</svg>