<?xml version="1.0" standalone="no"?><!DOCTYPE svg PUBLIC "-//W3C//DTD SVG 1.1//EN" "http://www.w3.org/Graphics/SVG/1.1/DTD/svg11.dtd"><svg t="1614407657576" class="icon" viewBox="0 0 1024 1024" version="1.1" xmlns="http://www.w3.org/2000/svg" p-id="8137" xmlns:xlink="http://www.w3.org/1999/xlink" width="200" height="200"><defs><style type="text/css"></style></defs><path d="M752.8 116.3h198.8L654 426.2H88.5l664.3-309.9z m-689 317.3h597.6V504l-264.2 46.9v243.3l264.2 45.7v67.9H63.8v-70.3l235.8-42V554.6L63.8 507.7v-74.1z m896.4-317.3L668.8 426.2v71.6l291.3-345.7v-35.8z m0 0" p-id="8138"></path><path d="M287.3 654.7v122.2L97.2 815.1l190.1-160.4zM412 557.1v208.7l206.2-239.5L412 557.1zM633 520L418.2 779.3 654 815.1l297.6-543.9-65.4-12.9-212.4 255.8L633 520z m327.2-235.8V299L679.9 883v-58l280.3-540.8z m0 0" p-id="8139"></path></svg>