<?xml version="1.0" standalone="no"?><!DOCTYPE svg PUBLIC "-//W3C//DTD SVG 1.1//EN" "http://www.w3.org/Graphics/SVG/1.1/DTD/svg11.dtd"><svg t="1614407796205" class="icon" viewBox="0 0 1024 1024" version="1.1" xmlns="http://www.w3.org/2000/svg" p-id="9735" xmlns:xlink="http://www.w3.org/1999/xlink" width="200" height="200"><defs><style type="text/css"></style></defs><path d="M961.25 346.66666667L780.5 527.41666667c-30.75 30.75-81 30.75-111.75 0L488 346.66666667c-30.75-30.75-30.75-81 0-111.75L668.75 54.16666667c30.75-30.75 81-30.75 111.75 0L961.25 235.66666667c30.75 30 30.75 80.25 0 111zM911 265.66666667l-161.25-161.25c-13.5-13.5-36-13.5-49.5 0l-161.25 161.25c-13.5 13.5-13.5 36 0 49.5l161.25 161.25c13.5 13.5 36 13.5 49.5 0l161.25-161.25c14.25-13.5 14.25-35.25 0-49.5z m-531 705H124.25c-43.5 0-78.75-35.25-78.75-78.75V635.41666667c0-43.5 35.25-78.75 78.75-78.75h255.75c43.5 0 78.75 35.25 78.75 78.75V891.91666667c0 43.5-35.25 78.75-78.75 78.75z m0-473.25H124.25c-43.5 0-78.75-35.25-78.75-78.75V162.91666667c0-43.5 35.25-78.75 78.75-78.75h255.75c43.5 0 78.75 35.25 78.75 78.75V419.41666667c0 42.75-35.25 78-78.75 78z m216.75 59.25h255.75c43.5 0 78.75 35.25 78.75 78.75V891.91666667c0 43.5-35.25 78.75-78.75 78.75H596.75c-43.5 0-78.75-35.25-78.75-78.75V635.41666667c0-43.5 35.25-78.75 78.75-78.75z" p-id="9736"></path></svg>