<?xml version="1.0" standalone="no"?><!DOCTYPE svg PUBLIC "-//W3C//DTD SVG 1.1//EN" "http://www.w3.org/Graphics/SVG/1.1/DTD/svg11.dtd"><svg t="1614407562105" class="icon" viewBox="0 0 1024 1024" version="1.1" xmlns="http://www.w3.org/2000/svg" p-id="1876" xmlns:xlink="http://www.w3.org/1999/xlink" width="200" height="200"><defs><style type="text/css"></style></defs><path d="M789.675 329.18c-93.898-38.385-181.068-164.015-277.677-164.015s-183.777 125.63-277.675 164.014C127.45 372.87 74.517 377.776 74.517 408.604c0 25.712 47.267 71.527 62.542 90.1s12.678 48.286 13.663 60.945C280.214 609.516 512 612.382 512 612.382s231.785-2.866 361.279-52.733c0.985-12.66-1.612-42.374 13.663-60.946s62.541-64.387 62.541-90.099c0-30.828-52.932-35.735-159.807-79.425zM600.693 438.15c-12.038 66.168-47.345 121.774-88.694 121.774-35.399 0-83.173-54.747-88.687-121.774-6.062-73.678 32.507-121.773 88.687-121.773s101.724 50.142 88.694 121.773zM168.9 633.334c7.442 77.836 158.225 225.981 343.175 225.981 185.01 0 335.83-148.24 343.182-226.055C782.408 668.01 655.89 691.004 512 691.004c-143.784 0-270.225-22.96-343.1-57.67z" p-id="1877" fill="#2c2c2c"></path></svg>