<?xml version="1.0" standalone="no"?><!DOCTYPE svg PUBLIC "-//W3C//DTD SVG 1.1//EN" "http://www.w3.org/Graphics/SVG/1.1/DTD/svg11.dtd"><svg t="1614407668968" class="icon" viewBox="0 0 1219 1024" version="1.1" xmlns="http://www.w3.org/2000/svg" p-id="8988" xmlns:xlink="http://www.w3.org/1999/xlink" width="238.0859375" height="200"><defs><style type="text/css"></style></defs><path d="M527.716598 0c-282.767866 0-512 229.232134-512 512s229.232134 512 512 512S1039.716598 794.773597 1039.716598 512c0-282.767866-229.232134-512-512-512z m-93.568259 565.793618c-14.782607 8.696494-32.168432 17.392988-52.163205 26.082319v200.176961c0 9.995954-3.58605 17.605028-10.759583 22.822924-3.699234 2.607516-7.717959 3.909841-12.061909 3.909841-6.306749 0-11.849869-2.607516-16.627926-7.823979-4.783788-5.216464-7.170668-11.52178-7.170667-18.908786V611.111378c-49.994096 19.127989-81.725554 28.689834-95.198673 28.689835-8.262386 0-14.238181-3.36828-17.930251-10.107705-1.957069-3.4743-2.934171-7.1721-2.934171-11.084806 0-11.298279 8.581878-19.668117 25.75423-25.102351 35.210056-10.865603 65.3111-21.623754 90.308865-32.274452V396.588784h-46.948174c-9.781049 42.170116-18.258339 70.745335-25.43044 85.74428-6.306749 13.259646-14.89006 19.88732-25.755663 19.88732-12.388564 0-18.583563-7.280986-18.583562-21.84439 0-5.216464 5.868343-26.732765 17.605028-64.551768 7.606209-24.125249 14.233883-54.120274 19.88732-89.982209 5.429936-33.469324 9.781049-52.815084 13.041876-58.031548 3.259394-4.564585 8.149202-6.846877 14.670856-6.846877 14.124998 0 21.191078 9.892799 21.191078 29.668369 0 9.12917-2.607516 29.560916-7.823979 61.290942h38.14566v-119.322489c0-7.606209 2.388312-14.018978 7.170667-19.235442 4.778057-5.217896 10.321177-7.825412 16.627926-7.825412 4.997261 0 9.454393 1.630414 13.367099 4.891241 6.299586 5.216464 9.454393 12.606335 9.454393 22.169613v119.322489h43.360691c9.342642 0 16.40729 3.806686 21.191078 11.411462 1.955637 3.478598 2.934171 6.957195 2.934171 10.431495 0 5.217896-1.955637 10.107704-5.868342 14.672289-4.783788 5.434234-10.871334 8.149202-18.256907 8.149202h-43.360691v144.102483c11.298279-5.216464 21.517734-10.431495 30.645471-15.649391 10.432927-5.868343 18.68815-8.802514 24.777128-8.802514 4.126178 0 8.258088 1.630414 12.388564 4.891241 5.429936 4.348247 8.149202 9.778183 8.149203 16.299837 0.002865 9.567576-7.934297 19.021969-23.797161 28.364611z m89.005107 84.765745c-7.825412-7.823979-13.912958-14.557673-18.25834-20.212543-4.783788-6.301018-7.170668-13.147896-7.170668-20.539199 0-6.081815 2.169109-10.971623 6.520222-14.670857 4.564585-3.911273 10.106272-5.868343 16.626493-5.868342 4.564585 0 9.888501 2.067387 15.974614 6.193565 8.478724 5.65487 29.12251 27.386076 61.944254 65.205081 14.775444 16.951716 22.16818 30.212795 22.16818 39.77464 0 7.1721-2.49863 13.041876-7.495891 17.605028-4.131909 3.911273-8.914265 5.869775-14.345633 5.869776-8.696494 0-21.410281-10.107704-38.14566-30.321681-16.30127-19.77557-28.911903-34.11977-37.817571-43.035468z m302.38154-78.734074c-4.674903 4.457132-10.2696 6.683549-16.791254 6.683549h-59.985751v160.728976c0 22.821492-3.584617 39.230214-10.758151 49.229034-11.305442 15.649391-31.08531 23.474803-59.336737 23.474803-29.128241 0-57.706324-3.587483-85.74428-10.759583-21.519167-5.65487-32.275884-15.974614-32.275885-30.972127 0-14.782607 7.280986-22.169613 21.845823-22.169613 1.51723 0 12.273948 2.494332 32.273019 7.497324 16.084932 4.126178 35.211488 6.194998 57.379668 6.194998 9.342642 0 15.758277-1.199171 19.235442-3.587483 5.649139-3.697801 8.478724-13.693755 8.478723-29.995024V578.508838H490.550905c-9.566143 0-16.845696-3.366847-21.842957-10.107704-2.828151-3.69207-4.239362-7.823979-4.239361-12.387132 0-6.083248 2.283725-11.193692 6.846877-15.322735 5.216464-4.564585 11.623502-6.846877 19.235441-6.846877H699.855603V493.41787c0-7.823979 2.444188-14.507529 7.333996-20.049215 4.889808-5.54312 10.808295-8.313963 17.768356-8.313963 5.216464 0 9.887068 1.630414 14.018977 4.889808 6.521654 5.435667 9.779616 13.040443 9.779616 22.821491v41.078399h59.985752c6.521654 0 12.066206 2.06882 16.629358 6.194998 4.778057 4.131909 7.1721 9.34694 7.172101 15.647959 0.002865 6.306749-2.336735 11.686541-7.008773 16.137942z m4.401257-117.856836c-4.563152 4.564585-10.219455 6.846877-16.951716 6.846877H459.252123c-9.781049 0-17.172352-3.36828-22.169613-10.107705-2.828151-3.694935-4.237929-7.825412-4.237929-12.388564 0-6.083248 2.283725-11.192259 6.846877-15.322735 5.431369-4.564585 11.950158-6.846877 19.562098-6.846877h145.730031v-81.504918h-116.388318c-9.567576 0-16.847129-3.36828-21.84439-10.107705-2.828151-3.69207-4.237929-7.822547-4.237929-12.388564 0-6.081815 2.282292-11.083374 6.846877-14.99608 5.216464-4.77949 11.624935-7.173533 19.235442-7.173533h116.388318v-56.727789c0-6.520222 1.842453-12.388564 5.541686-17.605028 4.997261-6.95433 11.517482-10.432927 19.560665-10.432928 5.216464 0 9.887068 1.630414 14.02041 4.891241 6.520222 5.216464 9.778183 12.826971 9.778184 22.820059v57.054445h124.213729c6.520222 0 12.061908 2.067387 16.627926 6.194999 4.776625 4.130477 7.173533 9.348373 7.173533 15.649391 0 6.306749-2.283725 11.630665-6.846877 15.974614-4.566018 4.564585-10.219455 6.846877-16.954582 6.846878h-124.213729v81.504918h159.099995c6.521654 0 12.063341 2.067387 16.62506 6.194998 4.77949 4.130477 7.173533 9.34694 7.173533 15.647959 0.001433 6.088979-2.282292 11.411462-6.846877 15.976047z" p-id="8989"></path></svg>