<?xml version="1.0" standalone="no"?><!DOCTYPE svg PUBLIC "-//W3C//DTD SVG 1.1//EN" "http://www.w3.org/Graphics/SVG/1.1/DTD/svg11.dtd"><svg t="1614407620352" class="icon" viewBox="0 0 1024 1024" version="1.1" xmlns="http://www.w3.org/2000/svg" p-id="3834" xmlns:xlink="http://www.w3.org/1999/xlink" width="200" height="200"><defs><style type="text/css"></style></defs><path d="M877.714286 585.142857l-0.292572 17.261714C869.888 836.754286 709.193143 1024 512 1024c-201.947429 0-365.714286-196.461714-365.714286-438.857143h731.428572zM329.142857 39.789714V329.142857A36.571429 36.571429 0 0 0 365.714286 365.714286h292.571428a36.571429 36.571429 0 0 0 36.571429-36.571429V39.789714c146.432 67.218286 249.417143 212.553143 255.707428 382.610286L950.857143 438.857143h36.571428a36.571429 36.571429 0 1 1 0 73.142857H36.571429a36.571429 36.571429 0 1 1 0-73.142857H73.142857A438.930286 438.930286 0 0 1 329.142857 39.789714zM512 0a439.588571 439.588571 0 0 1 109.714286 13.897143V292.571429h-219.428572V13.824A439.588571 439.588571 0 0 1 512 0z" p-id="3835"></path></svg>